<mxfile host="app.diagrams.net" modified="2023-12-26T17:20:12.467Z" agent="Mozilla/5.0 (Windows NT 10.0; Win64; x64) AppleWebKit/537.36 (KHTML, like Gecko) Chrome/120.0.0.0 Safari/537.36" etag="8daaq7hQXHDXjoNsmwUR" version="22.1.11" type="github">
  <diagram id="prtHgNgQTEPvFCAcTncT" name="Page-1">
    <mxGraphModel dx="1878" dy="1089" grid="1" gridSize="10" guides="1" tooltips="1" connect="1" arrows="1" fold="1" page="1" pageScale="1" pageWidth="827" pageHeight="1169" math="0" shadow="0">
      <root>
        <mxCell id="0" />
        <mxCell id="1" parent="0" />
        <mxCell id="q4rXORAgUhLDJRBZg9zl-1" value="Admin" style="rounded=0;whiteSpace=wrap;html=1;" vertex="1" parent="1">
          <mxGeometry x="40" y="330" width="120" height="60" as="geometry" />
        </mxCell>
        <mxCell id="q4rXORAgUhLDJRBZg9zl-2" value="Employee&amp;nbsp;&lt;br&gt;Database" style="ellipse;whiteSpace=wrap;html=1;aspect=fixed;" vertex="1" parent="1">
          <mxGeometry x="60" y="545" width="80" height="80" as="geometry" />
        </mxCell>
        <mxCell id="q4rXORAgUhLDJRBZg9zl-3" value="" style="endArrow=classic;html=1;rounded=0;exitX=0.5;exitY=1;exitDx=0;exitDy=0;" edge="1" parent="1">
          <mxGeometry width="50" height="50" relative="1" as="geometry">
            <mxPoint x="68" y="390" as="sourcePoint" />
            <mxPoint x="68" y="560" as="targetPoint" />
          </mxGeometry>
        </mxCell>
        <mxCell id="q4rXORAgUhLDJRBZg9zl-4" value="Employee" style="rounded=0;whiteSpace=wrap;html=1;" vertex="1" parent="1">
          <mxGeometry x="502" y="330" width="120" height="60" as="geometry" />
        </mxCell>
        <mxCell id="q4rXORAgUhLDJRBZg9zl-5" value="" style="endArrow=classic;html=1;rounded=0;exitX=1;exitY=0.25;exitDx=0;exitDy=0;entryX=0.047;entryY=0.321;entryDx=0;entryDy=0;entryPerimeter=0;" edge="1" parent="1" source="q4rXORAgUhLDJRBZg9zl-1" target="q4rXORAgUhLDJRBZg9zl-7">
          <mxGeometry width="50" height="50" relative="1" as="geometry">
            <mxPoint x="190" y="370" as="sourcePoint" />
            <mxPoint x="290" y="344" as="targetPoint" />
          </mxGeometry>
        </mxCell>
        <mxCell id="q4rXORAgUhLDJRBZg9zl-6" value="" style="endArrow=classic;html=1;rounded=0;entryX=0.75;entryY=1;entryDx=0;entryDy=0;exitX=0.566;exitY=0.023;exitDx=0;exitDy=0;exitPerimeter=0;" edge="1" parent="1" source="q4rXORAgUhLDJRBZg9zl-53">
          <mxGeometry width="50" height="50" relative="1" as="geometry">
            <mxPoint x="614.5" y="545.6400000000001" as="sourcePoint" />
            <mxPoint x="615.2999999999998" y="390" as="targetPoint" />
          </mxGeometry>
        </mxCell>
        <mxCell id="q4rXORAgUhLDJRBZg9zl-7" value="Login" style="ellipse;whiteSpace=wrap;html=1;aspect=fixed;" vertex="1" parent="1">
          <mxGeometry x="290" y="320" width="80" height="80" as="geometry" />
        </mxCell>
        <mxCell id="q4rXORAgUhLDJRBZg9zl-8" value="" style="endArrow=classic;html=1;rounded=0;entryX=0.271;entryY=0.937;entryDx=0;entryDy=0;entryPerimeter=0;" edge="1" parent="1" target="q4rXORAgUhLDJRBZg9zl-7">
          <mxGeometry width="50" height="50" relative="1" as="geometry">
            <mxPoint x="312" y="470" as="sourcePoint" />
            <mxPoint x="312" y="399.12" as="targetPoint" />
          </mxGeometry>
        </mxCell>
        <mxCell id="q4rXORAgUhLDJRBZg9zl-9" value="" style="endArrow=classic;html=1;rounded=0;exitX=0.647;exitY=0.975;exitDx=0;exitDy=0;exitPerimeter=0;" edge="1" parent="1" source="q4rXORAgUhLDJRBZg9zl-7">
          <mxGeometry width="50" height="50" relative="1" as="geometry">
            <mxPoint x="342.08" y="399.03999999999996" as="sourcePoint" />
            <mxPoint x="342" y="470" as="targetPoint" />
          </mxGeometry>
        </mxCell>
        <mxCell id="q4rXORAgUhLDJRBZg9zl-10" value="" style="endArrow=classic;html=1;rounded=0;entryX=0.863;entryY=1.033;entryDx=0;entryDy=0;entryPerimeter=0;" edge="1" parent="1" target="q4rXORAgUhLDJRBZg9zl-1">
          <mxGeometry width="50" height="50" relative="1" as="geometry">
            <mxPoint x="200" y="490" as="sourcePoint" />
            <mxPoint x="250" y="575" as="targetPoint" />
            <Array as="points">
              <mxPoint x="200" y="450" />
              <mxPoint x="144" y="450" />
            </Array>
          </mxGeometry>
        </mxCell>
        <mxCell id="q4rXORAgUhLDJRBZg9zl-11" value="" style="endArrow=classic;html=1;rounded=0;exitX=0.75;exitY=1;exitDx=0;exitDy=0;" edge="1" parent="1">
          <mxGeometry width="50" height="50" relative="1" as="geometry">
            <mxPoint x="120" y="390" as="sourcePoint" />
            <mxPoint x="160" y="530" as="targetPoint" />
            <Array as="points">
              <mxPoint x="120" y="530" />
            </Array>
          </mxGeometry>
        </mxCell>
        <mxCell id="q4rXORAgUhLDJRBZg9zl-12" value="" style="endArrow=classic;html=1;rounded=0;entryX=0.952;entryY=0.305;entryDx=0;entryDy=0;entryPerimeter=0;exitX=0;exitY=0.25;exitDx=0;exitDy=0;" edge="1" parent="1" source="q4rXORAgUhLDJRBZg9zl-4" target="q4rXORAgUhLDJRBZg9zl-7">
          <mxGeometry width="50" height="50" relative="1" as="geometry">
            <mxPoint x="490.1199999999999" y="345.56" as="sourcePoint" />
            <mxPoint x="362.32000000000005" y="344.84" as="targetPoint" />
          </mxGeometry>
        </mxCell>
        <mxCell id="q4rXORAgUhLDJRBZg9zl-13" value="" style="endArrow=classic;html=1;rounded=0;exitX=1;exitY=0.25;exitDx=0;exitDy=0;entryX=0.066;entryY=0.295;entryDx=0;entryDy=0;entryPerimeter=0;" edge="1" parent="1">
          <mxGeometry width="50" height="50" relative="1" as="geometry">
            <mxPoint x="368" y="371" as="sourcePoint" />
            <mxPoint x="503" y="370" as="targetPoint" />
          </mxGeometry>
        </mxCell>
        <mxCell id="q4rXORAgUhLDJRBZg9zl-14" value="" style="endArrow=classic;html=1;rounded=0;entryX=0.952;entryY=0.305;entryDx=0;entryDy=0;entryPerimeter=0;exitX=0.023;exitY=0.625;exitDx=0;exitDy=0;exitPerimeter=0;" edge="1" parent="1" source="q4rXORAgUhLDJRBZg9zl-7">
          <mxGeometry width="50" height="50" relative="1" as="geometry">
            <mxPoint x="290" y="370" as="sourcePoint" />
            <mxPoint x="160" y="370" as="targetPoint" />
          </mxGeometry>
        </mxCell>
        <mxCell id="q4rXORAgUhLDJRBZg9zl-15" value="Login&amp;nbsp;Response" style="text;html=1;strokeColor=none;fillColor=none;align=center;verticalAlign=middle;whiteSpace=wrap;rounded=0;" vertex="1" parent="1">
          <mxGeometry x="190" y="370" width="90" height="30" as="geometry" />
        </mxCell>
        <mxCell id="q4rXORAgUhLDJRBZg9zl-16" value="Login Info" style="text;html=1;strokeColor=none;fillColor=none;align=center;verticalAlign=middle;whiteSpace=wrap;rounded=0;" vertex="1" parent="1">
          <mxGeometry x="180" y="320" width="100" height="20" as="geometry" />
        </mxCell>
        <mxCell id="q4rXORAgUhLDJRBZg9zl-17" value="Login Info" style="text;html=1;strokeColor=none;fillColor=none;align=center;verticalAlign=middle;whiteSpace=wrap;rounded=0;" vertex="1" parent="1">
          <mxGeometry x="395" y="315" width="60" height="30" as="geometry" />
        </mxCell>
        <mxCell id="q4rXORAgUhLDJRBZg9zl-18" value="Login&amp;nbsp;Response" style="text;html=1;strokeColor=none;fillColor=none;align=center;verticalAlign=middle;whiteSpace=wrap;rounded=0;" vertex="1" parent="1">
          <mxGeometry x="380" y="370" width="90" height="30" as="geometry" />
        </mxCell>
        <mxCell id="q4rXORAgUhLDJRBZg9zl-21" value="" style="endArrow=none;html=1;rounded=0;" edge="1" parent="1">
          <mxGeometry width="50" height="50" relative="1" as="geometry">
            <mxPoint x="290" y="470" as="sourcePoint" />
            <mxPoint x="370" y="470" as="targetPoint" />
          </mxGeometry>
        </mxCell>
        <mxCell id="q4rXORAgUhLDJRBZg9zl-24" value="Response" style="text;html=1;strokeColor=none;fillColor=none;align=center;verticalAlign=middle;whiteSpace=wrap;rounded=0;rotation=270;" vertex="1" parent="1">
          <mxGeometry x="270" y="427.5" width="60" height="20" as="geometry" />
        </mxCell>
        <mxCell id="q4rXORAgUhLDJRBZg9zl-25" value="Login Details" style="text;html=1;strokeColor=none;fillColor=none;align=center;verticalAlign=middle;whiteSpace=wrap;rounded=0;rotation=270;" vertex="1" parent="1">
          <mxGeometry x="320" y="420" width="80" height="20" as="geometry" />
        </mxCell>
        <mxCell id="q4rXORAgUhLDJRBZg9zl-26" value="Login Details" style="text;html=1;strokeColor=none;fillColor=none;align=center;verticalAlign=middle;whiteSpace=wrap;rounded=0;rotation=0;" vertex="1" parent="1">
          <mxGeometry x="285" y="470" width="90" height="20" as="geometry" />
        </mxCell>
        <mxCell id="q4rXORAgUhLDJRBZg9zl-27" value="" style="endArrow=none;html=1;rounded=0;" edge="1" parent="1">
          <mxGeometry width="50" height="50" relative="1" as="geometry">
            <mxPoint x="290" y="490" as="sourcePoint" />
            <mxPoint x="370" y="490" as="targetPoint" />
          </mxGeometry>
        </mxCell>
        <mxCell id="q4rXORAgUhLDJRBZg9zl-28" value="Leave&amp;nbsp;&lt;br&gt;Database" style="ellipse;whiteSpace=wrap;html=1;aspect=fixed;" vertex="1" parent="1">
          <mxGeometry x="160" y="490" width="80" height="80" as="geometry" />
        </mxCell>
        <mxCell id="q4rXORAgUhLDJRBZg9zl-29" value="Update&amp;nbsp; Response" style="text;html=1;strokeColor=none;fillColor=none;align=center;verticalAlign=middle;whiteSpace=wrap;rounded=0;" vertex="1" parent="1">
          <mxGeometry x="147.5" y="415" width="105" height="30" as="geometry" />
        </mxCell>
        <mxCell id="q4rXORAgUhLDJRBZg9zl-30" value="Update&amp;nbsp; Response" style="text;html=1;strokeColor=none;fillColor=none;align=center;verticalAlign=middle;whiteSpace=wrap;rounded=0;rotation=270;" vertex="1" parent="1">
          <mxGeometry x="55" y="470" width="105" height="20" as="geometry" />
        </mxCell>
        <mxCell id="q4rXORAgUhLDJRBZg9zl-31" value="Leave Action Request" style="text;html=1;strokeColor=none;fillColor=none;align=center;verticalAlign=middle;whiteSpace=wrap;rounded=0;" vertex="1" parent="1">
          <mxGeometry x="105" y="460" width="105" height="30" as="geometry" />
        </mxCell>
        <mxCell id="q4rXORAgUhLDJRBZg9zl-32" value="User Action Request" style="text;html=1;strokeColor=none;fillColor=none;align=center;verticalAlign=middle;whiteSpace=wrap;rounded=0;" vertex="1" parent="1">
          <mxGeometry x="-40" y="480" width="105" height="30" as="geometry" />
        </mxCell>
        <mxCell id="q4rXORAgUhLDJRBZg9zl-33" value="" style="endArrow=none;html=1;rounded=0;exitX=0.004;exitY=-0.168;exitDx=0;exitDy=0;exitPerimeter=0;" edge="1" parent="1" source="q4rXORAgUhLDJRBZg9zl-34">
          <mxGeometry width="50" height="50" relative="1" as="geometry">
            <mxPoint x="285" y="604.13" as="sourcePoint" />
            <mxPoint x="370" y="604" as="targetPoint" />
          </mxGeometry>
        </mxCell>
        <mxCell id="q4rXORAgUhLDJRBZg9zl-34" value="Leave Database" style="text;html=1;strokeColor=none;fillColor=none;align=center;verticalAlign=middle;whiteSpace=wrap;rounded=0;rotation=0;" vertex="1" parent="1">
          <mxGeometry x="280" y="608.13" width="90" height="20" as="geometry" />
        </mxCell>
        <mxCell id="q4rXORAgUhLDJRBZg9zl-35" value="" style="endArrow=none;html=1;rounded=0;exitX=0;exitY=1;exitDx=0;exitDy=0;entryX=1.037;entryY=0.96;entryDx=0;entryDy=0;entryPerimeter=0;" edge="1" parent="1" source="q4rXORAgUhLDJRBZg9zl-34" target="q4rXORAgUhLDJRBZg9zl-34">
          <mxGeometry width="50" height="50" relative="1" as="geometry">
            <mxPoint x="285" y="627.13" as="sourcePoint" />
            <mxPoint x="380" y="627" as="targetPoint" />
          </mxGeometry>
        </mxCell>
        <mxCell id="q4rXORAgUhLDJRBZg9zl-36" value="" style="endArrow=classic;html=1;rounded=0;exitX=1;exitY=0.5;exitDx=0;exitDy=0;" edge="1" parent="1" source="q4rXORAgUhLDJRBZg9zl-28">
          <mxGeometry width="50" height="50" relative="1" as="geometry">
            <mxPoint x="320" y="434.13" as="sourcePoint" />
            <mxPoint x="320" y="604.13" as="targetPoint" />
            <Array as="points">
              <mxPoint x="320" y="530" />
            </Array>
          </mxGeometry>
        </mxCell>
        <mxCell id="q4rXORAgUhLDJRBZg9zl-37" value="Salary /Task&amp;nbsp;&lt;br&gt;Database" style="ellipse;whiteSpace=wrap;html=1;aspect=fixed;" vertex="1" parent="1">
          <mxGeometry x="450" y="465" width="80" height="80" as="geometry" />
        </mxCell>
        <mxCell id="q4rXORAgUhLDJRBZg9zl-38" value="" style="endArrow=classic;html=1;rounded=0;entryX=0.149;entryY=1.092;entryDx=0;entryDy=0;exitX=0.201;exitY=0.079;exitDx=0;exitDy=0;exitPerimeter=0;entryPerimeter=0;" edge="1" parent="1" source="q4rXORAgUhLDJRBZg9zl-37" target="q4rXORAgUhLDJRBZg9zl-4">
          <mxGeometry width="50" height="50" relative="1" as="geometry">
            <mxPoint x="465.1600000000001" y="470" as="sourcePoint" />
            <mxPoint x="524.8399999999999" y="389.7199999999999" as="targetPoint" />
            <Array as="points">
              <mxPoint x="465" y="440" />
              <mxPoint x="520" y="440" />
            </Array>
          </mxGeometry>
        </mxCell>
        <mxCell id="q4rXORAgUhLDJRBZg9zl-39" value="" style="endArrow=classic;html=1;rounded=0;exitX=1;exitY=0.5;exitDx=0;exitDy=0;entryX=0.252;entryY=0.951;entryDx=0;entryDy=0;entryPerimeter=0;" edge="1" parent="1" target="q4rXORAgUhLDJRBZg9zl-37">
          <mxGeometry width="50" height="50" relative="1" as="geometry">
            <mxPoint x="380" y="610" as="sourcePoint" />
            <mxPoint x="460" y="684.13" as="targetPoint" />
            <Array as="points">
              <mxPoint x="470" y="610" />
            </Array>
          </mxGeometry>
        </mxCell>
        <mxCell id="q4rXORAgUhLDJRBZg9zl-40" value="Update&amp;nbsp; Response" style="text;html=1;strokeColor=none;fillColor=none;align=center;verticalAlign=middle;whiteSpace=wrap;rounded=0;" vertex="1" parent="1">
          <mxGeometry x="414" y="410" width="105" height="30" as="geometry" />
        </mxCell>
        <mxCell id="q4rXORAgUhLDJRBZg9zl-43" value="" style="endArrow=classic;html=1;rounded=0;exitX=0.5;exitY=1;exitDx=0;exitDy=0;entryX=0.983;entryY=0.69;entryDx=0;entryDy=0;entryPerimeter=0;" edge="1" parent="1" source="q4rXORAgUhLDJRBZg9zl-4" target="q4rXORAgUhLDJRBZg9zl-37">
          <mxGeometry width="50" height="50" relative="1" as="geometry">
            <mxPoint x="582" y="390" as="sourcePoint" />
            <mxPoint x="622" y="530" as="targetPoint" />
            <Array as="points">
              <mxPoint x="562" y="520" />
            </Array>
          </mxGeometry>
        </mxCell>
        <mxCell id="q4rXORAgUhLDJRBZg9zl-44" value="View Details" style="text;html=1;strokeColor=none;fillColor=none;align=center;verticalAlign=middle;whiteSpace=wrap;rounded=0;rotation=270;" vertex="1" parent="1">
          <mxGeometry x="500" y="445" width="105" height="25" as="geometry" />
        </mxCell>
        <mxCell id="q4rXORAgUhLDJRBZg9zl-48" value="" style="endArrow=classic;html=1;rounded=0;exitX=0.5;exitY=1;exitDx=0;exitDy=0;" edge="1" parent="1">
          <mxGeometry width="50" height="50" relative="1" as="geometry">
            <mxPoint x="599.12" y="390" as="sourcePoint" />
            <mxPoint x="599" y="550" as="targetPoint" />
          </mxGeometry>
        </mxCell>
        <mxCell id="q4rXORAgUhLDJRBZg9zl-52" value="" style="endArrow=classic;html=1;rounded=0;entryX=0.75;entryY=1;entryDx=0;entryDy=0;exitX=0.64;exitY=0.008;exitDx=0;exitDy=0;exitPerimeter=0;" edge="1" parent="1">
          <mxGeometry width="50" height="50" relative="1" as="geometry">
            <mxPoint x="90" y="545.6400000000002" as="sourcePoint" />
            <mxPoint x="90.79999999999984" y="390" as="targetPoint" />
          </mxGeometry>
        </mxCell>
        <mxCell id="q4rXORAgUhLDJRBZg9zl-53" value="Employee&amp;nbsp;&lt;br&gt;Database" style="ellipse;whiteSpace=wrap;html=1;aspect=fixed;" vertex="1" parent="1">
          <mxGeometry x="570" y="548.13" width="80" height="80" as="geometry" />
        </mxCell>
        <mxCell id="q4rXORAgUhLDJRBZg9zl-54" value="Update&amp;nbsp; Response" style="text;html=1;strokeColor=none;fillColor=none;align=center;verticalAlign=middle;whiteSpace=wrap;rounded=0;rotation=270;" vertex="1" parent="1">
          <mxGeometry x="540" y="445" width="105" height="30" as="geometry" />
        </mxCell>
        <mxCell id="q4rXORAgUhLDJRBZg9zl-55" value="Profile Action Request" style="text;html=1;strokeColor=none;fillColor=none;align=center;verticalAlign=middle;whiteSpace=wrap;rounded=0;" vertex="1" parent="1">
          <mxGeometry x="610" y="445" width="105" height="30" as="geometry" />
        </mxCell>
        <mxCell id="q4rXORAgUhLDJRBZg9zl-56" value="" style="endArrow=none;html=1;rounded=0;exitX=0.004;exitY=-0.168;exitDx=0;exitDy=0;exitPerimeter=0;" edge="1" parent="1" source="q4rXORAgUhLDJRBZg9zl-57">
          <mxGeometry width="50" height="50" relative="1" as="geometry">
            <mxPoint x="316" y="680.13" as="sourcePoint" />
            <mxPoint x="401" y="680" as="targetPoint" />
          </mxGeometry>
        </mxCell>
        <mxCell id="q4rXORAgUhLDJRBZg9zl-57" value="Employee Database" style="text;html=1;strokeColor=none;fillColor=none;align=center;verticalAlign=middle;whiteSpace=wrap;rounded=0;rotation=0;" vertex="1" parent="1">
          <mxGeometry x="267" y="683.13" width="130" height="20" as="geometry" />
        </mxCell>
        <mxCell id="q4rXORAgUhLDJRBZg9zl-58" value="" style="endArrow=none;html=1;rounded=0;exitX=0;exitY=1;exitDx=0;exitDy=0;entryX=1.037;entryY=0.96;entryDx=0;entryDy=0;entryPerimeter=0;" edge="1" parent="1" source="q4rXORAgUhLDJRBZg9zl-57" target="q4rXORAgUhLDJRBZg9zl-57">
          <mxGeometry width="50" height="50" relative="1" as="geometry">
            <mxPoint x="316" y="703.13" as="sourcePoint" />
            <mxPoint x="411" y="703" as="targetPoint" />
          </mxGeometry>
        </mxCell>
        <mxCell id="q4rXORAgUhLDJRBZg9zl-59" value="" style="endArrow=classic;html=1;rounded=0;" edge="1" parent="1">
          <mxGeometry width="50" height="50" relative="1" as="geometry">
            <mxPoint x="400" y="690" as="sourcePoint" />
            <mxPoint x="610" y="630" as="targetPoint" />
            <Array as="points">
              <mxPoint x="610" y="690" />
            </Array>
          </mxGeometry>
        </mxCell>
        <mxCell id="q4rXORAgUhLDJRBZg9zl-60" value="" style="endArrow=classic;html=1;rounded=0;exitX=0;exitY=0.25;exitDx=0;exitDy=0;" edge="1" parent="1" source="q4rXORAgUhLDJRBZg9zl-57">
          <mxGeometry width="50" height="50" relative="1" as="geometry">
            <mxPoint x="-130" y="688.13" as="sourcePoint" />
            <mxPoint x="100" y="628.13" as="targetPoint" />
            <Array as="points">
              <mxPoint x="100" y="688.13" />
            </Array>
          </mxGeometry>
        </mxCell>
      </root>
    </mxGraphModel>
  </diagram>
</mxfile>
